<mxfile host="app.diagrams.net" modified="2021-08-20T06:25:06.851Z" agent="5.0 (Windows NT 10.0; Win64; x64) AppleWebKit/537.36 (KHTML, like Gecko) Chrome/92.0.4515.159 Safari/537.36" etag="Vf39mUvkEMVQR2HW53w8" version="14.9.8" type="github">
  <diagram id="R2lEEEUBdFMjLlhIrx00" name="Page-1">
    <mxGraphModel dx="863" dy="784" grid="1" gridSize="10" guides="1" tooltips="1" connect="1" arrows="1" fold="1" page="1" pageScale="1" pageWidth="850" pageHeight="1100" math="0" shadow="0" extFonts="Permanent Marker^https://fonts.googleapis.com/css?family=Permanent+Marker">
      <root>
        <mxCell id="0" />
        <mxCell id="1" parent="0" />
        <object label="SuperPerson" description="" id="C-vyLk0tnHw3VtMMgP7b-23">
          <mxCell style="shape=table;startSize=30;container=1;collapsible=1;childLayout=tableLayout;fixedRows=1;rowLines=0;fontStyle=1;align=center;resizeLast=1;" parent="1" vertex="1">
            <mxGeometry x="120" y="40" width="270" height="190" as="geometry" />
          </mxCell>
        </object>
        <mxCell id="C-vyLk0tnHw3VtMMgP7b-24" value="" style="shape=partialRectangle;collapsible=0;dropTarget=0;pointerEvents=0;fillColor=none;points=[[0,0.5],[1,0.5]];portConstraint=eastwest;top=0;left=0;right=0;bottom=1;" parent="C-vyLk0tnHw3VtMMgP7b-23" vertex="1">
          <mxGeometry y="30" width="270" height="30" as="geometry" />
        </mxCell>
        <mxCell id="C-vyLk0tnHw3VtMMgP7b-25" value="PK" style="shape=partialRectangle;overflow=hidden;connectable=0;fillColor=none;top=0;left=0;bottom=0;right=0;fontStyle=1;" parent="C-vyLk0tnHw3VtMMgP7b-24" vertex="1">
          <mxGeometry width="30" height="30" as="geometry" />
        </mxCell>
        <mxCell id="C-vyLk0tnHw3VtMMgP7b-26" value="superPersonID int NOT NULL " style="shape=partialRectangle;overflow=hidden;connectable=0;fillColor=none;top=0;left=0;bottom=0;right=0;align=left;spacingLeft=6;fontStyle=5;" parent="C-vyLk0tnHw3VtMMgP7b-24" vertex="1">
          <mxGeometry x="30" width="240" height="30" as="geometry" />
        </mxCell>
        <mxCell id="C-vyLk0tnHw3VtMMgP7b-27" value="" style="shape=partialRectangle;collapsible=0;dropTarget=0;pointerEvents=0;fillColor=none;points=[[0,0.5],[1,0.5]];portConstraint=eastwest;top=0;left=0;right=0;bottom=0;" parent="C-vyLk0tnHw3VtMMgP7b-23" vertex="1">
          <mxGeometry y="60" width="270" height="30" as="geometry" />
        </mxCell>
        <mxCell id="C-vyLk0tnHw3VtMMgP7b-28" value="" style="shape=partialRectangle;overflow=hidden;connectable=0;fillColor=none;top=0;left=0;bottom=0;right=0;" parent="C-vyLk0tnHw3VtMMgP7b-27" vertex="1">
          <mxGeometry width="30" height="30" as="geometry" />
        </mxCell>
        <mxCell id="C-vyLk0tnHw3VtMMgP7b-29" value="superPersonName char(50) NOT NULL" style="shape=partialRectangle;overflow=hidden;connectable=0;fillColor=none;top=0;left=0;bottom=0;right=0;align=left;spacingLeft=6;" parent="C-vyLk0tnHw3VtMMgP7b-27" vertex="1">
          <mxGeometry x="30" width="240" height="30" as="geometry" />
        </mxCell>
        <mxCell id="THcojhGgTA37443H6Eyn-1" style="shape=partialRectangle;collapsible=0;dropTarget=0;pointerEvents=0;fillColor=none;points=[[0,0.5],[1,0.5]];portConstraint=eastwest;top=0;left=0;right=0;bottom=0;" vertex="1" parent="C-vyLk0tnHw3VtMMgP7b-23">
          <mxGeometry y="90" width="270" height="30" as="geometry" />
        </mxCell>
        <mxCell id="THcojhGgTA37443H6Eyn-2" style="shape=partialRectangle;overflow=hidden;connectable=0;fillColor=none;top=0;left=0;bottom=0;right=0;" vertex="1" parent="THcojhGgTA37443H6Eyn-1">
          <mxGeometry width="30" height="30" as="geometry" />
        </mxCell>
        <mxCell id="THcojhGgTA37443H6Eyn-3" value="description VARCHAR" style="shape=partialRectangle;overflow=hidden;connectable=0;fillColor=none;top=0;left=0;bottom=0;right=0;align=left;spacingLeft=6;" vertex="1" parent="THcojhGgTA37443H6Eyn-1">
          <mxGeometry x="30" width="240" height="30" as="geometry" />
        </mxCell>
        <mxCell id="THcojhGgTA37443H6Eyn-4" style="shape=partialRectangle;collapsible=0;dropTarget=0;pointerEvents=0;fillColor=none;points=[[0,0.5],[1,0.5]];portConstraint=eastwest;top=0;left=0;right=0;bottom=0;" vertex="1" parent="C-vyLk0tnHw3VtMMgP7b-23">
          <mxGeometry y="120" width="270" height="30" as="geometry" />
        </mxCell>
        <mxCell id="THcojhGgTA37443H6Eyn-5" style="shape=partialRectangle;overflow=hidden;connectable=0;fillColor=none;top=0;left=0;bottom=0;right=0;" vertex="1" parent="THcojhGgTA37443H6Eyn-4">
          <mxGeometry width="30" height="30" as="geometry" />
        </mxCell>
        <mxCell id="THcojhGgTA37443H6Eyn-6" value="superpower VARCHAR" style="shape=partialRectangle;overflow=hidden;connectable=0;fillColor=none;top=0;left=0;bottom=0;right=0;align=left;spacingLeft=6;" vertex="1" parent="THcojhGgTA37443H6Eyn-4">
          <mxGeometry x="30" width="240" height="30" as="geometry" />
        </mxCell>
        <mxCell id="THcojhGgTA37443H6Eyn-121" style="shape=partialRectangle;collapsible=0;dropTarget=0;pointerEvents=0;fillColor=none;points=[[0,0.5],[1,0.5]];portConstraint=eastwest;top=0;left=0;right=0;bottom=0;" vertex="1" parent="C-vyLk0tnHw3VtMMgP7b-23">
          <mxGeometry y="150" width="270" height="30" as="geometry" />
        </mxCell>
        <mxCell id="THcojhGgTA37443H6Eyn-122" style="shape=partialRectangle;overflow=hidden;connectable=0;fillColor=none;top=0;left=0;bottom=0;right=0;" vertex="1" parent="THcojhGgTA37443H6Eyn-121">
          <mxGeometry width="30" height="30" as="geometry" />
        </mxCell>
        <mxCell id="THcojhGgTA37443H6Eyn-123" value="isHero boolean" style="shape=partialRectangle;overflow=hidden;connectable=0;fillColor=none;top=0;left=0;bottom=0;right=0;align=left;spacingLeft=6;" vertex="1" parent="THcojhGgTA37443H6Eyn-121">
          <mxGeometry x="30" width="240" height="30" as="geometry" />
        </mxCell>
        <object label="SuperSighting" description="" id="THcojhGgTA37443H6Eyn-7">
          <mxCell style="shape=table;startSize=30;container=1;collapsible=1;childLayout=tableLayout;fixedRows=1;rowLines=0;fontStyle=1;align=center;resizeLast=1;" vertex="1" parent="1">
            <mxGeometry x="120" y="290" width="250" height="160" as="geometry" />
          </mxCell>
        </object>
        <mxCell id="THcojhGgTA37443H6Eyn-8" value="" style="shape=partialRectangle;collapsible=0;dropTarget=0;pointerEvents=0;fillColor=none;points=[[0,0.5],[1,0.5]];portConstraint=eastwest;top=0;left=0;right=0;bottom=1;" vertex="1" parent="THcojhGgTA37443H6Eyn-7">
          <mxGeometry y="30" width="250" height="30" as="geometry" />
        </mxCell>
        <mxCell id="THcojhGgTA37443H6Eyn-9" value="PK" style="shape=partialRectangle;overflow=hidden;connectable=0;fillColor=none;top=0;left=0;bottom=0;right=0;fontStyle=1;" vertex="1" parent="THcojhGgTA37443H6Eyn-8">
          <mxGeometry width="30" height="30" as="geometry" />
        </mxCell>
        <mxCell id="THcojhGgTA37443H6Eyn-10" value="sightingID int NOT NULL " style="shape=partialRectangle;overflow=hidden;connectable=0;fillColor=none;top=0;left=0;bottom=0;right=0;align=left;spacingLeft=6;fontStyle=5;" vertex="1" parent="THcojhGgTA37443H6Eyn-8">
          <mxGeometry x="30" width="220" height="30" as="geometry" />
        </mxCell>
        <mxCell id="THcojhGgTA37443H6Eyn-11" value="" style="shape=partialRectangle;collapsible=0;dropTarget=0;pointerEvents=0;fillColor=none;points=[[0,0.5],[1,0.5]];portConstraint=eastwest;top=0;left=0;right=0;bottom=0;" vertex="1" parent="THcojhGgTA37443H6Eyn-7">
          <mxGeometry y="60" width="250" height="30" as="geometry" />
        </mxCell>
        <mxCell id="THcojhGgTA37443H6Eyn-12" value="FK" style="shape=partialRectangle;overflow=hidden;connectable=0;fillColor=none;top=0;left=0;bottom=0;right=0;" vertex="1" parent="THcojhGgTA37443H6Eyn-11">
          <mxGeometry width="30" height="30" as="geometry" />
        </mxCell>
        <mxCell id="THcojhGgTA37443H6Eyn-13" value="superPersonID int NOT NULL" style="shape=partialRectangle;overflow=hidden;connectable=0;fillColor=none;top=0;left=0;bottom=0;right=0;align=left;spacingLeft=6;" vertex="1" parent="THcojhGgTA37443H6Eyn-11">
          <mxGeometry x="30" width="220" height="30" as="geometry" />
        </mxCell>
        <mxCell id="THcojhGgTA37443H6Eyn-14" style="shape=partialRectangle;collapsible=0;dropTarget=0;pointerEvents=0;fillColor=none;points=[[0,0.5],[1,0.5]];portConstraint=eastwest;top=0;left=0;right=0;bottom=0;" vertex="1" parent="THcojhGgTA37443H6Eyn-7">
          <mxGeometry y="90" width="250" height="30" as="geometry" />
        </mxCell>
        <mxCell id="THcojhGgTA37443H6Eyn-15" value="FK" style="shape=partialRectangle;overflow=hidden;connectable=0;fillColor=none;top=0;left=0;bottom=0;right=0;" vertex="1" parent="THcojhGgTA37443H6Eyn-14">
          <mxGeometry width="30" height="30" as="geometry" />
        </mxCell>
        <mxCell id="THcojhGgTA37443H6Eyn-16" value="locationID" style="shape=partialRectangle;overflow=hidden;connectable=0;fillColor=none;top=0;left=0;bottom=0;right=0;align=left;spacingLeft=6;" vertex="1" parent="THcojhGgTA37443H6Eyn-14">
          <mxGeometry x="30" width="220" height="30" as="geometry" />
        </mxCell>
        <mxCell id="THcojhGgTA37443H6Eyn-89" style="shape=partialRectangle;collapsible=0;dropTarget=0;pointerEvents=0;fillColor=none;points=[[0,0.5],[1,0.5]];portConstraint=eastwest;top=0;left=0;right=0;bottom=0;" vertex="1" parent="THcojhGgTA37443H6Eyn-7">
          <mxGeometry y="120" width="250" height="30" as="geometry" />
        </mxCell>
        <mxCell id="THcojhGgTA37443H6Eyn-90" style="shape=partialRectangle;overflow=hidden;connectable=0;fillColor=none;top=0;left=0;bottom=0;right=0;" vertex="1" parent="THcojhGgTA37443H6Eyn-89">
          <mxGeometry width="30" height="30" as="geometry" />
        </mxCell>
        <mxCell id="THcojhGgTA37443H6Eyn-91" value="date date" style="shape=partialRectangle;overflow=hidden;connectable=0;fillColor=none;top=0;left=0;bottom=0;right=0;align=left;spacingLeft=6;" vertex="1" parent="THcojhGgTA37443H6Eyn-89">
          <mxGeometry x="30" width="220" height="30" as="geometry" />
        </mxCell>
        <object label="Org" description="" id="THcojhGgTA37443H6Eyn-29">
          <mxCell style="shape=table;startSize=30;container=1;collapsible=1;childLayout=tableLayout;fixedRows=1;rowLines=0;fontStyle=1;align=center;resizeLast=1;" vertex="1" parent="1">
            <mxGeometry x="515" y="170" width="285" height="190" as="geometry" />
          </mxCell>
        </object>
        <mxCell id="THcojhGgTA37443H6Eyn-30" value="" style="shape=partialRectangle;collapsible=0;dropTarget=0;pointerEvents=0;fillColor=none;points=[[0,0.5],[1,0.5]];portConstraint=eastwest;top=0;left=0;right=0;bottom=1;" vertex="1" parent="THcojhGgTA37443H6Eyn-29">
          <mxGeometry y="30" width="285" height="30" as="geometry" />
        </mxCell>
        <mxCell id="THcojhGgTA37443H6Eyn-31" value="PK" style="shape=partialRectangle;overflow=hidden;connectable=0;fillColor=none;top=0;left=0;bottom=0;right=0;fontStyle=1;" vertex="1" parent="THcojhGgTA37443H6Eyn-30">
          <mxGeometry width="30" height="30" as="geometry" />
        </mxCell>
        <mxCell id="THcojhGgTA37443H6Eyn-32" value="orgID int NOT NULL " style="shape=partialRectangle;overflow=hidden;connectable=0;fillColor=none;top=0;left=0;bottom=0;right=0;align=left;spacingLeft=6;fontStyle=5;" vertex="1" parent="THcojhGgTA37443H6Eyn-30">
          <mxGeometry x="30" width="255" height="30" as="geometry" />
        </mxCell>
        <mxCell id="THcojhGgTA37443H6Eyn-33" value="" style="shape=partialRectangle;collapsible=0;dropTarget=0;pointerEvents=0;fillColor=none;points=[[0,0.5],[1,0.5]];portConstraint=eastwest;top=0;left=0;right=0;bottom=0;" vertex="1" parent="THcojhGgTA37443H6Eyn-29">
          <mxGeometry y="60" width="285" height="30" as="geometry" />
        </mxCell>
        <mxCell id="THcojhGgTA37443H6Eyn-34" value="" style="shape=partialRectangle;overflow=hidden;connectable=0;fillColor=none;top=0;left=0;bottom=0;right=0;" vertex="1" parent="THcojhGgTA37443H6Eyn-33">
          <mxGeometry width="30" height="30" as="geometry" />
        </mxCell>
        <mxCell id="THcojhGgTA37443H6Eyn-35" value="orgName varchar(50) NOT NULL" style="shape=partialRectangle;overflow=hidden;connectable=0;fillColor=none;top=0;left=0;bottom=0;right=0;align=left;spacingLeft=6;" vertex="1" parent="THcojhGgTA37443H6Eyn-33">
          <mxGeometry x="30" width="255" height="30" as="geometry" />
        </mxCell>
        <mxCell id="THcojhGgTA37443H6Eyn-36" style="shape=partialRectangle;collapsible=0;dropTarget=0;pointerEvents=0;fillColor=none;points=[[0,0.5],[1,0.5]];portConstraint=eastwest;top=0;left=0;right=0;bottom=0;" vertex="1" parent="THcojhGgTA37443H6Eyn-29">
          <mxGeometry y="90" width="285" height="30" as="geometry" />
        </mxCell>
        <mxCell id="THcojhGgTA37443H6Eyn-37" style="shape=partialRectangle;overflow=hidden;connectable=0;fillColor=none;top=0;left=0;bottom=0;right=0;" vertex="1" parent="THcojhGgTA37443H6Eyn-36">
          <mxGeometry width="30" height="30" as="geometry" />
        </mxCell>
        <mxCell id="THcojhGgTA37443H6Eyn-38" value="description varchar(200)" style="shape=partialRectangle;overflow=hidden;connectable=0;fillColor=none;top=0;left=0;bottom=0;right=0;align=left;spacingLeft=6;" vertex="1" parent="THcojhGgTA37443H6Eyn-36">
          <mxGeometry x="30" width="255" height="30" as="geometry" />
        </mxCell>
        <mxCell id="THcojhGgTA37443H6Eyn-39" style="shape=partialRectangle;collapsible=0;dropTarget=0;pointerEvents=0;fillColor=none;points=[[0,0.5],[1,0.5]];portConstraint=eastwest;top=0;left=0;right=0;bottom=0;" vertex="1" parent="THcojhGgTA37443H6Eyn-29">
          <mxGeometry y="120" width="285" height="30" as="geometry" />
        </mxCell>
        <mxCell id="THcojhGgTA37443H6Eyn-40" style="shape=partialRectangle;overflow=hidden;connectable=0;fillColor=none;top=0;left=0;bottom=0;right=0;" vertex="1" parent="THcojhGgTA37443H6Eyn-39">
          <mxGeometry width="30" height="30" as="geometry" />
        </mxCell>
        <mxCell id="THcojhGgTA37443H6Eyn-41" value="addressID int" style="shape=partialRectangle;overflow=hidden;connectable=0;fillColor=none;top=0;left=0;bottom=0;right=0;align=left;spacingLeft=6;" vertex="1" parent="THcojhGgTA37443H6Eyn-39">
          <mxGeometry x="30" width="255" height="30" as="geometry" />
        </mxCell>
        <mxCell id="THcojhGgTA37443H6Eyn-118" style="shape=partialRectangle;collapsible=0;dropTarget=0;pointerEvents=0;fillColor=none;points=[[0,0.5],[1,0.5]];portConstraint=eastwest;top=0;left=0;right=0;bottom=0;" vertex="1" parent="THcojhGgTA37443H6Eyn-29">
          <mxGeometry y="150" width="285" height="30" as="geometry" />
        </mxCell>
        <mxCell id="THcojhGgTA37443H6Eyn-119" style="shape=partialRectangle;overflow=hidden;connectable=0;fillColor=none;top=0;left=0;bottom=0;right=0;" vertex="1" parent="THcojhGgTA37443H6Eyn-118">
          <mxGeometry width="30" height="30" as="geometry" />
        </mxCell>
        <mxCell id="THcojhGgTA37443H6Eyn-120" value="isHeroic boolean" style="shape=partialRectangle;overflow=hidden;connectable=0;fillColor=none;top=0;left=0;bottom=0;right=0;align=left;spacingLeft=6;" vertex="1" parent="THcojhGgTA37443H6Eyn-118">
          <mxGeometry x="30" width="255" height="30" as="geometry" />
        </mxCell>
        <object label="Location" description="" id="THcojhGgTA37443H6Eyn-42">
          <mxCell style="shape=table;startSize=30;container=1;collapsible=1;childLayout=tableLayout;fixedRows=1;rowLines=0;fontStyle=1;align=center;resizeLast=1;" vertex="1" parent="1">
            <mxGeometry x="120" y="490" width="250" height="220" as="geometry" />
          </mxCell>
        </object>
        <mxCell id="THcojhGgTA37443H6Eyn-43" value="" style="shape=partialRectangle;collapsible=0;dropTarget=0;pointerEvents=0;fillColor=none;points=[[0,0.5],[1,0.5]];portConstraint=eastwest;top=0;left=0;right=0;bottom=1;" vertex="1" parent="THcojhGgTA37443H6Eyn-42">
          <mxGeometry y="30" width="250" height="30" as="geometry" />
        </mxCell>
        <mxCell id="THcojhGgTA37443H6Eyn-44" value="PK" style="shape=partialRectangle;overflow=hidden;connectable=0;fillColor=none;top=0;left=0;bottom=0;right=0;fontStyle=1;" vertex="1" parent="THcojhGgTA37443H6Eyn-43">
          <mxGeometry width="30" height="30" as="geometry" />
        </mxCell>
        <mxCell id="THcojhGgTA37443H6Eyn-45" value="locationID int NOT NULL " style="shape=partialRectangle;overflow=hidden;connectable=0;fillColor=none;top=0;left=0;bottom=0;right=0;align=left;spacingLeft=6;fontStyle=5;" vertex="1" parent="THcojhGgTA37443H6Eyn-43">
          <mxGeometry x="30" width="220" height="30" as="geometry" />
        </mxCell>
        <mxCell id="THcojhGgTA37443H6Eyn-46" value="" style="shape=partialRectangle;collapsible=0;dropTarget=0;pointerEvents=0;fillColor=none;points=[[0,0.5],[1,0.5]];portConstraint=eastwest;top=0;left=0;right=0;bottom=0;" vertex="1" parent="THcojhGgTA37443H6Eyn-42">
          <mxGeometry y="60" width="250" height="30" as="geometry" />
        </mxCell>
        <mxCell id="THcojhGgTA37443H6Eyn-47" value="" style="shape=partialRectangle;overflow=hidden;connectable=0;fillColor=none;top=0;left=0;bottom=0;right=0;" vertex="1" parent="THcojhGgTA37443H6Eyn-46">
          <mxGeometry width="30" height="30" as="geometry" />
        </mxCell>
        <mxCell id="THcojhGgTA37443H6Eyn-48" value="locationName char(100) NOT NULL" style="shape=partialRectangle;overflow=hidden;connectable=0;fillColor=none;top=0;left=0;bottom=0;right=0;align=left;spacingLeft=6;" vertex="1" parent="THcojhGgTA37443H6Eyn-46">
          <mxGeometry x="30" width="220" height="30" as="geometry" />
        </mxCell>
        <mxCell id="THcojhGgTA37443H6Eyn-49" style="shape=partialRectangle;collapsible=0;dropTarget=0;pointerEvents=0;fillColor=none;points=[[0,0.5],[1,0.5]];portConstraint=eastwest;top=0;left=0;right=0;bottom=0;" vertex="1" parent="THcojhGgTA37443H6Eyn-42">
          <mxGeometry y="90" width="250" height="30" as="geometry" />
        </mxCell>
        <mxCell id="THcojhGgTA37443H6Eyn-50" style="shape=partialRectangle;overflow=hidden;connectable=0;fillColor=none;top=0;left=0;bottom=0;right=0;" vertex="1" parent="THcojhGgTA37443H6Eyn-49">
          <mxGeometry width="30" height="30" as="geometry" />
        </mxCell>
        <mxCell id="THcojhGgTA37443H6Eyn-51" value="description varchar(200)" style="shape=partialRectangle;overflow=hidden;connectable=0;fillColor=none;top=0;left=0;bottom=0;right=0;align=left;spacingLeft=6;" vertex="1" parent="THcojhGgTA37443H6Eyn-49">
          <mxGeometry x="30" width="220" height="30" as="geometry" />
        </mxCell>
        <mxCell id="THcojhGgTA37443H6Eyn-52" style="shape=partialRectangle;collapsible=0;dropTarget=0;pointerEvents=0;fillColor=none;points=[[0,0.5],[1,0.5]];portConstraint=eastwest;top=0;left=0;right=0;bottom=0;" vertex="1" parent="THcojhGgTA37443H6Eyn-42">
          <mxGeometry y="120" width="250" height="30" as="geometry" />
        </mxCell>
        <mxCell id="THcojhGgTA37443H6Eyn-53" value="FK" style="shape=partialRectangle;overflow=hidden;connectable=0;fillColor=none;top=0;left=0;bottom=0;right=0;" vertex="1" parent="THcojhGgTA37443H6Eyn-52">
          <mxGeometry width="30" height="30" as="geometry" />
        </mxCell>
        <mxCell id="THcojhGgTA37443H6Eyn-54" value="addressID int" style="shape=partialRectangle;overflow=hidden;connectable=0;fillColor=none;top=0;left=0;bottom=0;right=0;align=left;spacingLeft=6;" vertex="1" parent="THcojhGgTA37443H6Eyn-52">
          <mxGeometry x="30" width="220" height="30" as="geometry" />
        </mxCell>
        <mxCell id="THcojhGgTA37443H6Eyn-55" style="shape=partialRectangle;collapsible=0;dropTarget=0;pointerEvents=0;fillColor=none;points=[[0,0.5],[1,0.5]];portConstraint=eastwest;top=0;left=0;right=0;bottom=0;" vertex="1" parent="THcojhGgTA37443H6Eyn-42">
          <mxGeometry y="150" width="250" height="30" as="geometry" />
        </mxCell>
        <mxCell id="THcojhGgTA37443H6Eyn-56" style="shape=partialRectangle;overflow=hidden;connectable=0;fillColor=none;top=0;left=0;bottom=0;right=0;" vertex="1" parent="THcojhGgTA37443H6Eyn-55">
          <mxGeometry width="30" height="30" as="geometry" />
        </mxCell>
        <mxCell id="THcojhGgTA37443H6Eyn-57" value="longitude char(15)" style="shape=partialRectangle;overflow=hidden;connectable=0;fillColor=none;top=0;left=0;bottom=0;right=0;align=left;spacingLeft=6;" vertex="1" parent="THcojhGgTA37443H6Eyn-55">
          <mxGeometry x="30" width="220" height="30" as="geometry" />
        </mxCell>
        <mxCell id="THcojhGgTA37443H6Eyn-58" style="shape=partialRectangle;collapsible=0;dropTarget=0;pointerEvents=0;fillColor=none;points=[[0,0.5],[1,0.5]];portConstraint=eastwest;top=0;left=0;right=0;bottom=0;" vertex="1" parent="THcojhGgTA37443H6Eyn-42">
          <mxGeometry y="180" width="250" height="30" as="geometry" />
        </mxCell>
        <mxCell id="THcojhGgTA37443H6Eyn-59" style="shape=partialRectangle;overflow=hidden;connectable=0;fillColor=none;top=0;left=0;bottom=0;right=0;" vertex="1" parent="THcojhGgTA37443H6Eyn-58">
          <mxGeometry width="30" height="30" as="geometry" />
        </mxCell>
        <mxCell id="THcojhGgTA37443H6Eyn-60" value="latitude char(15)" style="shape=partialRectangle;overflow=hidden;connectable=0;fillColor=none;top=0;left=0;bottom=0;right=0;align=left;spacingLeft=6;" vertex="1" parent="THcojhGgTA37443H6Eyn-58">
          <mxGeometry x="30" width="220" height="30" as="geometry" />
        </mxCell>
        <object label="Address" description="" id="THcojhGgTA37443H6Eyn-61">
          <mxCell style="shape=table;startSize=30;container=1;collapsible=1;childLayout=tableLayout;fixedRows=1;rowLines=0;fontStyle=1;align=center;resizeLast=1;" vertex="1" parent="1">
            <mxGeometry x="515" y="490" width="285" height="180" as="geometry" />
          </mxCell>
        </object>
        <mxCell id="THcojhGgTA37443H6Eyn-62" value="" style="shape=partialRectangle;collapsible=0;dropTarget=0;pointerEvents=0;fillColor=none;points=[[0,0.5],[1,0.5]];portConstraint=eastwest;top=0;left=0;right=0;bottom=1;" vertex="1" parent="THcojhGgTA37443H6Eyn-61">
          <mxGeometry y="30" width="285" height="30" as="geometry" />
        </mxCell>
        <mxCell id="THcojhGgTA37443H6Eyn-63" value="PK" style="shape=partialRectangle;overflow=hidden;connectable=0;fillColor=none;top=0;left=0;bottom=0;right=0;fontStyle=1;" vertex="1" parent="THcojhGgTA37443H6Eyn-62">
          <mxGeometry width="30" height="30" as="geometry" />
        </mxCell>
        <mxCell id="THcojhGgTA37443H6Eyn-64" value="addressID int NOT NULL " style="shape=partialRectangle;overflow=hidden;connectable=0;fillColor=none;top=0;left=0;bottom=0;right=0;align=left;spacingLeft=6;fontStyle=5;" vertex="1" parent="THcojhGgTA37443H6Eyn-62">
          <mxGeometry x="30" width="255" height="30" as="geometry" />
        </mxCell>
        <mxCell id="THcojhGgTA37443H6Eyn-65" value="" style="shape=partialRectangle;collapsible=0;dropTarget=0;pointerEvents=0;fillColor=none;points=[[0,0.5],[1,0.5]];portConstraint=eastwest;top=0;left=0;right=0;bottom=0;" vertex="1" parent="THcojhGgTA37443H6Eyn-61">
          <mxGeometry y="60" width="285" height="30" as="geometry" />
        </mxCell>
        <mxCell id="THcojhGgTA37443H6Eyn-66" value="" style="shape=partialRectangle;overflow=hidden;connectable=0;fillColor=none;top=0;left=0;bottom=0;right=0;" vertex="1" parent="THcojhGgTA37443H6Eyn-65">
          <mxGeometry width="30" height="30" as="geometry" />
        </mxCell>
        <mxCell id="THcojhGgTA37443H6Eyn-67" value="ownerName varchar(50) " style="shape=partialRectangle;overflow=hidden;connectable=0;fillColor=none;top=0;left=0;bottom=0;right=0;align=left;spacingLeft=6;" vertex="1" parent="THcojhGgTA37443H6Eyn-65">
          <mxGeometry x="30" width="255" height="30" as="geometry" />
        </mxCell>
        <mxCell id="THcojhGgTA37443H6Eyn-71" style="shape=partialRectangle;collapsible=0;dropTarget=0;pointerEvents=0;fillColor=none;points=[[0,0.5],[1,0.5]];portConstraint=eastwest;top=0;left=0;right=0;bottom=0;" vertex="1" parent="THcojhGgTA37443H6Eyn-61">
          <mxGeometry y="90" width="285" height="30" as="geometry" />
        </mxCell>
        <mxCell id="THcojhGgTA37443H6Eyn-72" style="shape=partialRectangle;overflow=hidden;connectable=0;fillColor=none;top=0;left=0;bottom=0;right=0;" vertex="1" parent="THcojhGgTA37443H6Eyn-71">
          <mxGeometry width="30" height="30" as="geometry" />
        </mxCell>
        <mxCell id="THcojhGgTA37443H6Eyn-73" value="streetAddress varchar(50) NOT NULL" style="shape=partialRectangle;overflow=hidden;connectable=0;fillColor=none;top=0;left=0;bottom=0;right=0;align=left;spacingLeft=6;" vertex="1" parent="THcojhGgTA37443H6Eyn-71">
          <mxGeometry x="30" width="255" height="30" as="geometry" />
        </mxCell>
        <mxCell id="THcojhGgTA37443H6Eyn-74" style="shape=partialRectangle;collapsible=0;dropTarget=0;pointerEvents=0;fillColor=none;points=[[0,0.5],[1,0.5]];portConstraint=eastwest;top=0;left=0;right=0;bottom=0;" vertex="1" parent="THcojhGgTA37443H6Eyn-61">
          <mxGeometry y="120" width="285" height="30" as="geometry" />
        </mxCell>
        <mxCell id="THcojhGgTA37443H6Eyn-75" style="shape=partialRectangle;overflow=hidden;connectable=0;fillColor=none;top=0;left=0;bottom=0;right=0;" vertex="1" parent="THcojhGgTA37443H6Eyn-74">
          <mxGeometry width="30" height="30" as="geometry" />
        </mxCell>
        <mxCell id="THcojhGgTA37443H6Eyn-76" value="town varchar(50)" style="shape=partialRectangle;overflow=hidden;connectable=0;fillColor=none;top=0;left=0;bottom=0;right=0;align=left;spacingLeft=6;" vertex="1" parent="THcojhGgTA37443H6Eyn-74">
          <mxGeometry x="30" width="255" height="30" as="geometry" />
        </mxCell>
        <mxCell id="THcojhGgTA37443H6Eyn-77" style="shape=partialRectangle;collapsible=0;dropTarget=0;pointerEvents=0;fillColor=none;points=[[0,0.5],[1,0.5]];portConstraint=eastwest;top=0;left=0;right=0;bottom=0;" vertex="1" parent="THcojhGgTA37443H6Eyn-61">
          <mxGeometry y="150" width="285" height="30" as="geometry" />
        </mxCell>
        <mxCell id="THcojhGgTA37443H6Eyn-78" style="shape=partialRectangle;overflow=hidden;connectable=0;fillColor=none;top=0;left=0;bottom=0;right=0;" vertex="1" parent="THcojhGgTA37443H6Eyn-77">
          <mxGeometry width="30" height="30" as="geometry" />
        </mxCell>
        <mxCell id="THcojhGgTA37443H6Eyn-79" value="country varchar(60) NOT NULL" style="shape=partialRectangle;overflow=hidden;connectable=0;fillColor=none;top=0;left=0;bottom=0;right=0;align=left;spacingLeft=6;" vertex="1" parent="THcojhGgTA37443H6Eyn-77">
          <mxGeometry x="30" width="255" height="30" as="geometry" />
        </mxCell>
        <object label="PersonOrgCombo" description="" id="THcojhGgTA37443H6Eyn-92">
          <mxCell style="shape=table;startSize=30;container=1;collapsible=1;childLayout=tableLayout;fixedRows=1;rowLines=0;fontStyle=1;align=center;resizeLast=1;" vertex="1" parent="1">
            <mxGeometry x="540" y="40" width="260" height="90" as="geometry" />
          </mxCell>
        </object>
        <mxCell id="THcojhGgTA37443H6Eyn-93" value="" style="shape=partialRectangle;collapsible=0;dropTarget=0;pointerEvents=0;fillColor=none;points=[[0,0.5],[1,0.5]];portConstraint=eastwest;top=0;left=0;right=0;bottom=1;" vertex="1" parent="THcojhGgTA37443H6Eyn-92">
          <mxGeometry y="30" width="260" height="30" as="geometry" />
        </mxCell>
        <mxCell id="THcojhGgTA37443H6Eyn-94" value="PK, FK1" style="shape=partialRectangle;overflow=hidden;connectable=0;fillColor=none;top=0;left=0;bottom=0;right=0;fontStyle=1;" vertex="1" parent="THcojhGgTA37443H6Eyn-93">
          <mxGeometry width="60" height="30" as="geometry" />
        </mxCell>
        <mxCell id="THcojhGgTA37443H6Eyn-95" value="superPersonID int NOT NULL " style="shape=partialRectangle;overflow=hidden;connectable=0;fillColor=none;top=0;left=0;bottom=0;right=0;align=left;spacingLeft=6;fontStyle=5;" vertex="1" parent="THcojhGgTA37443H6Eyn-93">
          <mxGeometry x="60" width="200" height="30" as="geometry" />
        </mxCell>
        <mxCell id="THcojhGgTA37443H6Eyn-96" value="" style="shape=partialRectangle;collapsible=0;dropTarget=0;pointerEvents=0;fillColor=none;points=[[0,0.5],[1,0.5]];portConstraint=eastwest;top=0;left=0;right=0;bottom=0;" vertex="1" parent="THcojhGgTA37443H6Eyn-92">
          <mxGeometry y="60" width="260" height="30" as="geometry" />
        </mxCell>
        <mxCell id="THcojhGgTA37443H6Eyn-97" value="PK, FK2" style="shape=partialRectangle;overflow=hidden;connectable=0;fillColor=none;top=0;left=0;bottom=0;right=0;fontStyle=1" vertex="1" parent="THcojhGgTA37443H6Eyn-96">
          <mxGeometry width="60" height="30" as="geometry" />
        </mxCell>
        <mxCell id="THcojhGgTA37443H6Eyn-98" value="organizationID int NOT NULL" style="shape=partialRectangle;overflow=hidden;connectable=0;fillColor=none;top=0;left=0;bottom=0;right=0;align=left;spacingLeft=6;fontStyle=1" vertex="1" parent="THcojhGgTA37443H6Eyn-96">
          <mxGeometry x="60" width="200" height="30" as="geometry" />
        </mxCell>
        <mxCell id="THcojhGgTA37443H6Eyn-124" style="edgeStyle=orthogonalEdgeStyle;rounded=0;orthogonalLoop=1;jettySize=auto;html=1;entryX=1;entryY=0.5;entryDx=0;entryDy=0;endArrow=none;endFill=0;startArrow=ERmany;startFill=0;" edge="1" parent="1" source="THcojhGgTA37443H6Eyn-93" target="C-vyLk0tnHw3VtMMgP7b-24">
          <mxGeometry relative="1" as="geometry" />
        </mxCell>
        <mxCell id="THcojhGgTA37443H6Eyn-125" style="edgeStyle=orthogonalEdgeStyle;rounded=0;orthogonalLoop=1;jettySize=auto;html=1;entryX=0;entryY=0.5;entryDx=0;entryDy=0;endArrow=none;endFill=0;startArrow=ERmany;startFill=0;" edge="1" parent="1" source="THcojhGgTA37443H6Eyn-96" target="THcojhGgTA37443H6Eyn-30">
          <mxGeometry relative="1" as="geometry" />
        </mxCell>
        <mxCell id="THcojhGgTA37443H6Eyn-126" style="edgeStyle=orthogonalEdgeStyle;rounded=0;orthogonalLoop=1;jettySize=auto;html=1;entryX=0;entryY=0.5;entryDx=0;entryDy=0;endArrow=none;endFill=0;startArrow=ERmany;startFill=0;" edge="1" parent="1" source="THcojhGgTA37443H6Eyn-11" target="C-vyLk0tnHw3VtMMgP7b-24">
          <mxGeometry relative="1" as="geometry">
            <Array as="points">
              <mxPoint x="100" y="365" />
              <mxPoint x="100" y="85" />
            </Array>
          </mxGeometry>
        </mxCell>
        <mxCell id="THcojhGgTA37443H6Eyn-128" style="edgeStyle=orthogonalEdgeStyle;rounded=0;orthogonalLoop=1;jettySize=auto;html=1;entryX=0;entryY=0.5;entryDx=0;entryDy=0;endArrow=none;endFill=0;" edge="1" parent="1" source="THcojhGgTA37443H6Eyn-52" target="THcojhGgTA37443H6Eyn-62">
          <mxGeometry relative="1" as="geometry" />
        </mxCell>
        <mxCell id="THcojhGgTA37443H6Eyn-129" style="edgeStyle=orthogonalEdgeStyle;rounded=0;orthogonalLoop=1;jettySize=auto;html=1;entryX=0;entryY=0.5;entryDx=0;entryDy=0;startArrow=ERmany;startFill=0;endArrow=none;endFill=0;" edge="1" parent="1" source="THcojhGgTA37443H6Eyn-14" target="THcojhGgTA37443H6Eyn-43">
          <mxGeometry relative="1" as="geometry" />
        </mxCell>
        <mxCell id="THcojhGgTA37443H6Eyn-130" style="edgeStyle=orthogonalEdgeStyle;rounded=0;orthogonalLoop=1;jettySize=auto;html=1;entryX=0;entryY=0.5;entryDx=0;entryDy=0;startArrow=none;startFill=0;endArrow=none;endFill=0;" edge="1" parent="1" source="THcojhGgTA37443H6Eyn-39" target="THcojhGgTA37443H6Eyn-62">
          <mxGeometry relative="1" as="geometry" />
        </mxCell>
      </root>
    </mxGraphModel>
  </diagram>
</mxfile>
